{
  "accessors": [
    {
      "bufferView": 2,
      "componentType": 5126,
      "count": 1592,
      "max": [
        1.0974431037902832,
        4.049923419952393,
        0.39435604214668274
      ],
      "min": [
        -1.0974431037902832,
        0.00021518461289815605,
        -0.39435604214668274
      ],
      "type": "VEC3"
    },
    {
      "bufferView": 2,
      "byteOffset": 19104,
      "componentType": 5126,
      "count": 1592,
      "max": [
        0.9998455047607422,
        1.0,
        0.9999999403953552
      ],
      "min": [
        -0.9998455047607422,
        -1.0,
        -0.9999999403953552
      ],
      "type": "VEC3"
    },
    {
      "bufferView": 3,
      "componentType": 5126,
      "count": 1592,
      "max": [
        1.0,
        0.855655312538147,
        0.9554324746131897,
        1.0
      ],
      "min": [
        -0.8772060871124268,
        -0.8556141257286072,
        -0.9553858041763306,
        1.0
      ],
      "type": "VEC4"
    },
    {
      "bufferView": 1,
      "componentType": 5126,
      "count": 1592,
      "max": [
        0.984367847442627,
        0.9836009740829468
      ],
      "min": [
        0.014206022024154663,
        0.014031738042831421
      ],
      "type": "VEC2"
    },
    {
      "bufferView": 1,
      "byteOffset": 12736,
      "componentType": 5126,
      "count": 1592,
      "max": [
        0.984367847442627,
        0.9836009740829468
      ],
      "min": [
        0.014206022024154663,
        0.014031738042831421
      ],
      "type": "VEC2"
    },
    {
      "bufferView": 0,
      "componentType": 5125,
      "count": 8472,
      "type": "SCALAR"
    },
    {
      "bufferView": 2,
      "byteOffset": 38208,
      "componentType": 5126,
      "count": 2533,
      "max": [
        0.7580480575561523,
        2.5313925743103027,
        0.4436413645744324
      ],
      "min": [
        -0.7638950943946838,
        1.635297179222107,
        0.29850471019744873
      ],
      "type": "VEC3"
    },
    {
      "bufferView": 2,
      "byteOffset": 68604,
      "componentType": 5126,
      "count": 2533,
      "max": [
        1.0,
        1.0,
        1.0
      ],
      "min": [
        -1.0,
        -1.0,
        -0.4561498761177063
      ],
      "type": "VEC3"
    },
    {
      "bufferView": 1,
      "byteOffset": 25472,
      "componentType": 5126,
      "count": 2533,
      "max": [
        0.9435765743255615,
        0.7947279214859009
      ],
      "min": [
        0.06429871171712875,
        0.18750500679016113
      ],
      "type": "VEC2"
    },
    {
      "bufferView": 0,
      "byteOffset": 33888,
      "componentType": 5125,
      "count": 11610,
      "type": "SCALAR"
    }
  ],
  "asset": {
    "extras": {
      "author": "skylajade69 (https://sketchfab.com/skylajade69)",
      "license": "CC-BY-4.0 (http://creativecommons.org/licenses/by/4.0/)",
      "source": "https://sketchfab.com/3d-models/fnaf-world-gravestone-1b15031c464442d594f27b8e677a9509",
      "title": "Fnaf World gravestone"
    },
    "generator": "Sketchfab-16.11.0",
    "version": "2.0"
  },
  "bufferViews": [
    {
      "buffer": 0,
      "byteLength": 80328,
      "name": "floatBufferViews",
      "target": 34963
    },
    {
      "buffer": 0,
      "byteLength": 45736,
      "byteOffset": 80328,
      "byteStride": 8,
      "name": "floatBufferViews",
      "target": 34962
    },
    {
      "buffer": 0,
      "byteLength": 99000,
      "byteOffset": 126064,
      "byteStride": 12,
      "name": "floatBufferViews",
      "target": 34962
    },
    {
      "buffer": 0,
      "byteLength": 25472,
      "byteOffset": 225064,
      "byteStride": 16,
      "name": "floatBufferViews",
      "target": 34962
    }
  ],
  "buffers": [
    {
      "byteLength": 250536,
      "uri": "scene.bin"
    }
  ],
  "images": [
    {
      "uri": "textures/grave-yard_gray_baseColor.png"
    },
    {
      "uri": "textures/grave-yard_gray_normal.png"
    }
  ],
  "materials": [
    {
      "doubleSided": true,
      "name": "grave-yard_gray",
      "normalTexture": {
        "index": 1,
        "scale": 0.75
      },
      "pbrMetallicRoughness": {
        "baseColorTexture": {
          "index": 0
        },
        "metallicFactor": 0.0,
        "roughnessFactor": 0.777272
      }
    },
    {
      "doubleSided": true,
      "name": "grave-yard_rip",
      "pbrMetallicRoughness": {
        "baseColorFactor": [
          0.016325,
          0.016325,
          0.016325,
          1.0
        ],
        "metallicFactor": 0.0,
        "roughnessFactor": 0.868182
      }
    }
  ],
  "meshes": [
    {
      "name": "Object_0",
      "primitives": [
        {
          "attributes": {
            "NORMAL": 1,
            "POSITION": 0,
            "TANGENT": 2,
            "TEXCOORD_0": 3,
            "TEXCOORD_1": 4
          },
          "indices": 5,
          "material": 0,
          "mode": 4
        }
      ]
    },
    {
      "name": "Object_1",
      "primitives": [
        {
          "attributes": {
            "NORMAL": 7,
            "POSITION": 6,
            "TEXCOORD_0": 8
          },
          "indices": 9,
          "material": 1,
          "mode": 4
        }
      ]
    }
  ],
  "nodes": [
    {
      "children": [
        1
      ],
      "matrix": [
        1.0,
        0.0,
        0.0,
        0.0,
        0.0,
        2.220446049250313e-16,
        -1.0,
        0.0,
        0.0,
        1.0,
        2.220446049250313e-16,
        0.0,
        0.0,
        0.0,
        0.0,
        1.0
      ],
      "name": "Sketchfab_model"
    },
    {
      "children": [
        2
      ],
      "name": "root"
    },
    {
      "children": [
        3
      ],
      "matrix": [
        1.0,
        0.0,
        0.0,
        0.0,
        0.0,
        2.220446049250313e-16,
        1.0,
        0.0,
        0.0,
        -1.0,
        2.220446049250313e-16,
        0.0,
        0.0,
        0.0,
        0.0,
        1.0
      ],
      "name": "GLTF_SceneRootNode"
    },
    {
      "children": [
        4
      ],
      "name": "gravestone-yard.rig_7"
    },
    {
      "children": [
        5
      ],
      "matrix": [
        3.37174793862971e-07,
        0.0,
        -0.9999999999999432,
        0.0,
        0.0,
        1.0,
        0.0,
        0.0,
        0.9999999999999432,
        0.0,
        3.37174793862971e-07,
        0.0,
        0.0,
        2.0251357555389404,
        0.0,
        1.0
      ],
      "name": "b_spine_6"
    },
    {
      "children": [
        6,
        7
      ],
      "matrix": [
        3.37174793862971e-07,
        0.0,
        0.9999999999999432,
        0.0,
        -0.0,
        1.0,
        0.0,
        0.0,
        -0.9999999999999432,
        -0.0,
        3.37174793862971e-07,
        0.0,
        0.0,
        -2.0251357555389404,
        0.0,
        1.0
      ],
      "name": "obj_grave-yard_5"
    },
    {
      "mesh": 0,
      "name": "Object_6"
    },
    {
      "mesh": 1,
      "name": "Object_7"
    }
  ],
  "samplers": [
    {
      "magFilter": 9729,
      "minFilter": 9987,
      "wrapS": 10497,
      "wrapT": 10497
    }
  ],
  "scene": 0,
  "scenes": [
    {
      "name": "Sketchfab_Scene",
      "nodes": [
        0
      ]
    }
  ],
  "textures": [
    {
      "sampler": 0,
      "source": 0
    },
    {
      "sampler": 0,
      "source": 1
    }
  ]
}
