{
  "accessors": [
    {
      "bufferView": 2,
      "componentType": 5126,
      "count": 104,
      "max": [
        100.0,
        100.0,
        100.0
      ],
      "min": [
        -100.0,
        -100.0,
        -100.0
      ],
      "type": "VEC3"
    },
    {
      "bufferView": 2,
      "byteOffset": 1248,
      "componentType": 5126,
      "count": 104,
      "max": [
        1.0,
        1.0,
        1.0
      ],
      "min": [
        -1.0,
        -1.0,
        -1.0
      ],
      "type": "VEC3"
    },
    {
      "bufferView": 1,
      "componentType": 5126,
      "count": 104,
      "max": [
        0.6601564884185791,
        0.9389726519584656
      ],
      "min": [
        0.6315863132476807,
        0.8998722434043884
      ],
      "type": "VEC2"
    },
    {
      "bufferView": 0,
      "componentType": 5125,
      "count": 228,
      "type": "SCALAR"
    },
    {
      "bufferView": 2,
      "byteOffset": 2496,
      "componentType": 5126,
      "count": 116,
      "max": [
        32.047306060791016,
        11.99787425994873,
        199.6847686767578
      ],
      "min": [
        -32.047306060791016,
        -38.00212097167969,
        -10.876824378967285
      ],
      "type": "VEC3"
    },
    {
      "bufferView": 2,
      "byteOffset": 3888,
      "componentType": 5126,
      "count": 116,
      "max": [
        1.0,
        1.0,
        1.0
      ],
      "min": [
        -1.0,
        -1.0,
        -1.0
      ],
      "type": "VEC3"
    },
    {
      "bufferView": 1,
      "byteOffset": 832,
      "componentType": 5126,
      "count": 116,
      "max": [
        0.6878111362457275,
        0.9458063244819641
      ],
      "min": [
        0.5601630210876465,
        0.2973427474498749
      ],
      "type": "VEC2"
    },
    {
      "bufferView": 0,
      "byteOffset": 912,
      "componentType": 5125,
      "count": 174,
      "type": "SCALAR"
    },
    {
      "bufferView": 2,
      "byteOffset": 5280,
      "componentType": 5126,
      "count": 116,
      "max": [
        32.047306060791016,
        11.99787425994873,
        199.6847686767578
      ],
      "min": [
        -32.047306060791016,
        -38.00212097167969,
        -10.876824378967285
      ],
      "type": "VEC3"
    },
    {
      "bufferView": 2,
      "byteOffset": 6672,
      "componentType": 5126,
      "count": 116,
      "max": [
        1.0,
        1.0,
        1.0
      ],
      "min": [
        -1.0,
        -1.0,
        -1.0
      ],
      "type": "VEC3"
    },
    {
      "bufferView": 1,
      "byteOffset": 1760,
      "componentType": 5126,
      "count": 116,
      "max": [
        0.6917173862457275,
        0.9458063244819641
      ],
      "min": [
        0.5367255806922913,
        0.2992958724498749
      ],
      "type": "VEC2"
    },
    {
      "bufferView": 0,
      "byteOffset": 1608,
      "componentType": 5125,
      "count": 174,
      "type": "SCALAR"
    },
    {
      "bufferView": 2,
      "byteOffset": 8064,
      "componentType": 5126,
      "count": 116,
      "max": [
        32.047306060791016,
        11.99787425994873,
        199.6847686767578
      ],
      "min": [
        -32.047306060791016,
        -38.00212097167969,
        -10.876824378967285
      ],
      "type": "VEC3"
    },
    {
      "bufferView": 2,
      "byteOffset": 9456,
      "componentType": 5126,
      "count": 116,
      "max": [
        1.0,
        1.0,
        1.0
      ],
      "min": [
        -1.0,
        -1.0,
        -1.0
      ],
      "type": "VEC3"
    },
    {
      "bufferView": 1,
      "byteOffset": 2688,
      "componentType": 5126,
      "count": 116,
      "max": [
        0.6956236362457275,
        0.9575250744819641
      ],
      "min": [
        0.5523505806922913,
        0.2953896224498749
      ],
      "type": "VEC2"
    },
    {
      "bufferView": 0,
      "byteOffset": 2304,
      "componentType": 5125,
      "count": 174,
      "type": "SCALAR"
    },
    {
      "bufferView": 2,
      "byteOffset": 10848,
      "componentType": 5126,
      "count": 116,
      "max": [
        32.047306060791016,
        11.99787425994873,
        199.6847686767578
      ],
      "min": [
        -32.047306060791016,
        -38.00212097167969,
        -10.876824378967285
      ],
      "type": "VEC3"
    },
    {
      "bufferView": 2,
      "byteOffset": 12240,
      "componentType": 5126,
      "count": 116,
      "max": [
        1.0,
        1.0,
        1.0
      ],
      "min": [
        -1.0,
        -1.0,
        -1.0
      ],
      "type": "VEC3"
    },
    {
      "bufferView": 1,
      "byteOffset": 3616,
      "componentType": 5126,
      "count": 116,
      "max": [
        0.6956236362457275,
        0.9497125744819641
      ],
      "min": [
        0.5601630806922913,
        0.3090614974498749
      ],
      "type": "VEC2"
    },
    {
      "bufferView": 0,
      "byteOffset": 3000,
      "componentType": 5125,
      "count": 174,
      "type": "SCALAR"
    },
    {
      "bufferView": 2,
      "byteOffset": 13632,
      "componentType": 5126,
      "count": 104,
      "max": [
        100.0,
        100.0,
        100.0
      ],
      "min": [
        -100.0,
        -100.0,
        -100.0
      ],
      "type": "VEC3"
    },
    {
      "bufferView": 2,
      "byteOffset": 14880,
      "componentType": 5126,
      "count": 104,
      "max": [
        1.0,
        1.0,
        1.0
      ],
      "min": [
        -1.0,
        -1.0,
        -1.0
      ],
      "type": "VEC3"
    },
    {
      "bufferView": 1,
      "byteOffset": 4544,
      "componentType": 5126,
      "count": 104,
      "max": [
        0.6830611228942871,
        0.9758963584899902
      ],
      "min": [
        0.6276108622550964,
        0.8880788087844849
      ],
      "type": "VEC2"
    },
    {
      "bufferView": 0,
      "byteOffset": 3696,
      "componentType": 5125,
      "count": 228,
      "type": "SCALAR"
    },
    {
      "bufferView": 2,
      "byteOffset": 16128,
      "componentType": 5126,
      "count": 116,
      "max": [
        32.047306060791016,
        11.99787425994873,
        199.6847686767578
      ],
      "min": [
        -32.047306060791016,
        -38.00212097167969,
        -10.876824378967285
      ],
      "type": "VEC3"
    },
    {
      "bufferView": 2,
      "byteOffset": 17520,
      "componentType": 5126,
      "count": 116,
      "max": [
        1.0,
        1.0,
        1.0
      ],
      "min": [
        -1.0,
        -1.0,
        -1.0
      ],
      "type": "VEC3"
    },
    {
      "bufferView": 1,
      "byteOffset": 5376,
      "componentType": 5126,
      "count": 116,
      "max": [
        0.6956236362457275,
        0.9516656994819641
      ],
      "min": [
        0.5464912056922913,
        0.2992958724498749
      ],
      "type": "VEC2"
    },
    {
      "bufferView": 0,
      "byteOffset": 4608,
      "componentType": 5125,
      "count": 174,
      "type": "SCALAR"
    },
    {
      "bufferView": 2,
      "byteOffset": 18912,
      "componentType": 5126,
      "count": 116,
      "max": [
        32.047306060791016,
        11.99787425994873,
        199.6847686767578
      ],
      "min": [
        -32.047306060791016,
        -38.00212097167969,
        -10.876824378967285
      ],
      "type": "VEC3"
    },
    {
      "bufferView": 2,
      "byteOffset": 20304,
      "componentType": 5126,
      "count": 116,
      "max": [
        1.0,
        1.0,
        1.0
      ],
      "min": [
        -1.0,
        -1.0,
        -1.0
      ],
      "type": "VEC3"
    },
    {
      "bufferView": 1,
      "byteOffset": 6304,
      "componentType": 5126,
      "count": 116,
      "max": [
        0.6741392612457275,
        0.9575250744819641
      ],
      "min": [
        0.5660224556922913,
        0.2856239974498749
      ],
      "type": "VEC2"
    },
    {
      "bufferView": 0,
      "byteOffset": 5304,
      "componentType": 5125,
      "count": 174,
      "type": "SCALAR"
    },
    {
      "bufferView": 2,
      "byteOffset": 21696,
      "componentType": 5126,
      "count": 116,
      "max": [
        32.047306060791016,
        11.99787425994873,
        199.6847686767578
      ],
      "min": [
        -32.047306060791016,
        -38.00212097167969,
        -10.876824378967285
      ],
      "type": "VEC3"
    },
    {
      "bufferView": 2,
      "byteOffset": 23088,
      "componentType": 5126,
      "count": 116,
      "max": [
        1.0,
        1.0,
        1.0
      ],
      "min": [
        -1.0,
        -1.0,
        -1.0
      ],
      "type": "VEC3"
    },
    {
      "bufferView": 1,
      "byteOffset": 7232,
      "componentType": 5126,
      "count": 116,
      "max": [
        0.6975767612457275,
        0.9497125744819641
      ],
      "min": [
        0.5523505806922913,
        0.2973427474498749
      ],
      "type": "VEC2"
    },
    {
      "bufferView": 0,
      "byteOffset": 6000,
      "componentType": 5125,
      "count": 174,
      "type": "SCALAR"
    },
    {
      "bufferView": 2,
      "byteOffset": 24480,
      "componentType": 5126,
      "count": 204,
      "max": [
        142.9379425048828,
        168.48452758789063,
        2035.87646484375
      ],
      "min": [
        -140.03460693359375,
        -107.81220245361328,
        -1007.105712890625
      ],
      "type": "VEC3"
    },
    {
      "bufferView": 2,
      "byteOffset": 26928,
      "componentType": 5126,
      "count": 204,
      "max": [
        1.0,
        1.0,
        1.0
      ],
      "min": [
        -1.0,
        -1.0,
        -1.0
      ],
      "type": "VEC3"
    },
    {
      "bufferView": 1,
      "byteOffset": 8160,
      "componentType": 5126,
      "count": 204,
      "max": [
        0.8324439525604248,
        0.9536188244819641
      ],
      "min": [
        0.17398880422115326,
        0.17100781202316284
      ],
      "type": "VEC2"
    },
    {
      "bufferView": 0,
      "byteOffset": 6696,
      "componentType": 5125,
      "count": 318,
      "type": "SCALAR"
    },
    {
      "bufferView": 2,
      "byteOffset": 29376,
      "componentType": 5126,
      "count": 120,
      "max": [
        105.57579803466797,
        118.48038482666016,
        102.62565612792969
      ],
      "min": [
        -105.28129577636719,
        -94.61447143554688,
        -97.37434387207031
      ],
      "type": "VEC3"
    },
    {
      "bufferView": 2,
      "byteOffset": 30816,
      "componentType": 5126,
      "count": 120,
      "max": [
        1.0,
        0.9949859380722046,
        1.0
      ],
      "min": [
        -1.0,
        -1.0,
        -1.0
      ],
      "type": "VEC3"
    },
    {
      "bufferView": 1,
      "byteOffset": 9792,
      "componentType": 5126,
      "count": 120,
      "max": [
        0.4903959631919861,
        0.9411267042160034
      ],
      "min": [
        0.3165668845176697,
        0.7764440774917603
      ],
      "type": "VEC2"
    },
    {
      "bufferView": 0,
      "byteOffset": 7968,
      "componentType": 5125,
      "count": 192,
      "type": "SCALAR"
    },
    {
      "bufferView": 2,
      "byteOffset": 32256,
      "componentType": 5126,
      "count": 96,
      "max": [
        125.11872863769531,
        146.91268920898438,
        405.9363708496094
      ],
      "min": [
        -125.11875915527344,
        -146.91268920898438,
        -405.93756103515625
      ],
      "type": "VEC3"
    },
    {
      "bufferView": 2,
      "byteOffset": 33408,
      "componentType": 5126,
      "count": 96,
      "max": [
        1.0,
        1.0,
        1.0
      ],
      "min": [
        -1.0,
        -1.0,
        -1.0
      ],
      "type": "VEC3"
    },
    {
      "bufferView": 1,
      "byteOffset": 10752,
      "componentType": 5126,
      "count": 96,
      "max": [
        0.34025657176971436,
        0.9411267042160034
      ],
      "min": [
        0.3165668845176697,
        0.9053826928138733
      ],
      "type": "VEC2"
    },
    {
      "bufferView": 0,
      "byteOffset": 8736,
      "componentType": 5125,
      "count": 144,
      "type": "SCALAR"
    }
  ],
  "asset": {
    "extras": {
      "author": "AspectStudios (https://sketchfab.com/AspectStudio)",
      "license": "CC-BY-4.0 (http://creativecommons.org/licenses/by/4.0/)",
      "source": "https://sketchfab.com/3d-models/lowpoly-cabinets-acca46e0bd4c4b6a97622fe66165232f",
      "title": "Lowpoly Cabinets"
    },
    "generator": "Sketchfab-16.72.0",
    "version": "2.0"
  },
  "bufferViews": [
    {
      "buffer": 0,
      "byteLength": 9312,
      "name": "floatBufferViews",
      "target": 34963
    },
    {
      "buffer": 0,
      "byteLength": 11520,
      "byteOffset": 9312,
      "byteStride": 8,
      "name": "floatBufferViews",
      "target": 34962
    },
    {
      "buffer": 0,
      "byteLength": 34560,
      "byteOffset": 20832,
      "byteStride": 12,
      "name": "floatBufferViews",
      "target": 34962
    }
  ],
  "buffers": [
    {
      "byteLength": 55392,
      "uri": "scene.bin"
    }
  ],
  "extensionsUsed": [
    "KHR_materials_specular"
  ],
  "images": [
    {
      "uri": "textures/Palette_baseColor.png"
    }
  ],
  "materials": [
    {
      "doubleSided": true,
      "extensions": {
        "KHR_materials_specular": {
          "specularColorFactor": [
            1.0,
            1.0,
            1.0
          ],
          "specularFactor": 0.0
        }
      },
      "name": "Palette",
      "pbrMetallicRoughness": {
        "baseColorTexture": {
          "index": 0
        },
        "metallicFactor": 0.0
      }
    }
  ],
  "meshes": [
    {
      "name": "Drawers_Palette_0",
      "primitives": [
        {
          "attributes": {
            "NORMAL": 1,
            "POSITION": 0,
            "TEXCOORD_0": 2
          },
          "indices": 3,
          "material": 0,
          "mode": 4
        }
      ]
    },
    {
      "name": "Drawer.002_Palette_0",
      "primitives": [
        {
          "attributes": {
            "NORMAL": 5,
            "POSITION": 4,
            "TEXCOORD_0": 6
          },
          "indices": 7,
          "material": 0,
          "mode": 4
        }
      ]
    },
    {
      "name": "Drawer.003_Palette_0",
      "primitives": [
        {
          "attributes": {
            "NORMAL": 9,
            "POSITION": 8,
            "TEXCOORD_0": 10
          },
          "indices": 11,
          "material": 0,
          "mode": 4
        }
      ]
    },
    {
      "name": "Drawer.004_Palette_0",
      "primitives": [
        {
          "attributes": {
            "NORMAL": 13,
            "POSITION": 12,
            "TEXCOORD_0": 14
          },
          "indices": 15,
          "material": 0,
          "mode": 4
        }
      ]
    },
    {
      "name": "Drawer.005_Palette_0",
      "primitives": [
        {
          "attributes": {
            "NORMAL": 17,
            "POSITION": 16,
            "TEXCOORD_0": 18
          },
          "indices": 19,
          "material": 0,
          "mode": 4
        }
      ]
    },
    {
      "name": "Drawers2_Palette_0",
      "primitives": [
        {
          "attributes": {
            "NORMAL": 21,
            "POSITION": 20,
            "TEXCOORD_0": 22
          },
          "indices": 23,
          "material": 0,
          "mode": 4
        }
      ]
    },
    {
      "name": "Drawer.006_Palette_0",
      "primitives": [
        {
          "attributes": {
            "NORMAL": 25,
            "POSITION": 24,
            "TEXCOORD_0": 26
          },
          "indices": 27,
          "material": 0,
          "mode": 4
        }
      ]
    },
    {
      "name": "Drawer.007_Palette_0",
      "primitives": [
        {
          "attributes": {
            "NORMAL": 29,
            "POSITION": 28,
            "TEXCOORD_0": 30
          },
          "indices": 31,
          "material": 0,
          "mode": 4
        }
      ]
    },
    {
      "name": "Drawer.008_Palette_0",
      "primitives": [
        {
          "attributes": {
            "NORMAL": 33,
            "POSITION": 32,
            "TEXCOORD_0": 34
          },
          "indices": 35,
          "material": 0,
          "mode": 4
        }
      ]
    },
    {
      "name": "Drawer.009_Palette_0",
      "primitives": [
        {
          "attributes": {
            "NORMAL": 37,
            "POSITION": 36,
            "TEXCOORD_0": 38
          },
          "indices": 39,
          "material": 0,
          "mode": 4
        }
      ]
    },
    {
      "name": "Folder_Palette_0",
      "primitives": [
        {
          "attributes": {
            "NORMAL": 41,
            "POSITION": 40,
            "TEXCOORD_0": 42
          },
          "indices": 43,
          "material": 0,
          "mode": 4
        }
      ]
    },
    {
      "name": "Paper_Palette_0",
      "primitives": [
        {
          "attributes": {
            "NORMAL": 45,
            "POSITION": 44,
            "TEXCOORD_0": 46
          },
          "indices": 47,
          "material": 0,
          "mode": 4
        }
      ]
    }
  ],
  "nodes": [
    {
      "children": [
        1
      ],
      "matrix": [
        1.0,
        0.0,
        0.0,
        0.0,
        0.0,
        2.220446049250313e-16,
        -1.0,
        0.0,
        0.0,
        1.0,
        2.220446049250313e-16,
        0.0,
        0.0,
        0.0,
        0.0,
        1.0
      ],
      "name": "Sketchfab_model"
    },
    {
      "children": [
        2
      ],
      "matrix": [
        0.009999999776482582,
        0.0,
        0.0,
        0.0,
        0.0,
        0.0,
        0.009999999776482582,
        0.0,
        0.0,
        -0.009999999776482582,
        0.0,
        0.0,
        0.0,
        0.0,
        0.0,
        1.0
      ],
      "name": "0beb75a539714093a6d25f90a3455092.fbx"
    },
    {
      "children": [
        3,
        13
      ],
      "name": "RootNode"
    },
    {
      "children": [
        4,
        5,
        7,
        9,
        11
      ],
      "matrix": [
        0.23474892973899758,
        2.0522403993929738e-08,
        -0.0,
        -0.0,
        -6.840800983922998e-08,
        0.7824963927268954,
        -0.0,
        -0.0,
        -0.0,
        -0.0,
        -0.23474888503551483,
        -0.0,
        7.056832313537598,
        79.33038330078125,
        -24.886577606201172,
        1.0
      ],
      "name": "Drawers"
    },
    {
      "mesh": 0,
      "name": "Drawers_Palette_0"
    },
    {
      "children": [
        6
      ],
      "matrix": [
        2.9709722995758057,
        1.3234889800848441e-23,
        0.0,
        0.0,
        -3.8703212430794226e-24,
        0.8688109517097473,
        0.0,
        0.0,
        0.0,
        0.0,
        0.8432713150978088,
        0.0,
        1.866323471069336,
        81.23153686523438,
        -100.00000762939453,
        1.0
      ],
      "name": "Drawer.002"
    },
    {
      "mesh": 1,
      "name": "Drawer.002_Palette_0"
    },
    {
      "children": [
        8
      ],
      "matrix": [
        2.9709722995758057,
        1.3234889800848441e-23,
        0.0,
        0.0,
        -3.8703212430794226e-24,
        0.8688109517097473,
        0.0,
        0.0,
        0.0,
        0.0,
        0.8432713150978088,
        0.0,
        1.866323471069336,
        33.97627258300781,
        -159.64260864257813,
        1.0
      ],
      "name": "Drawer.003"
    },
    {
      "mesh": 2,
      "name": "Drawer.003_Palette_0"
    },
    {
      "children": [
        10
      ],
      "matrix": [
        2.9709722995758057,
        1.3234889800848441e-23,
        0.0,
        0.0,
        -3.8703212430794226e-24,
        0.8688109517097473,
        0.0,
        0.0,
        0.0,
        0.0,
        0.8432713150978088,
        0.0,
        1.866323471069336,
        -13.206161499023438,
        -100.00000762939453,
        1.0
      ],
      "name": "Drawer.004"
    },
    {
      "mesh": 3,
      "name": "Drawer.004_Palette_0"
    },
    {
      "children": [
        12
      ],
      "matrix": [
        2.9709722995758057,
        1.3234889800848441e-23,
        0.0,
        0.0,
        -3.8703212430794226e-24,
        0.8688109517097473,
        0.0,
        0.0,
        0.0,
        0.0,
        0.8432713150978088,
        0.0,
        1.866323471069336,
        -60.189571380615234,
        -100.00000762939453,
        1.0
      ],
      "name": "Drawer.005"
    },
    {
      "mesh": 4,
      "name": "Drawer.005_Palette_0"
    },
    {
      "children": [
        14,
        15,
        17,
        19,
        21,
        23,
        25
      ],
      "matrix": [
        0.23474892973899758,
        2.0522403993929738e-08,
        -0.0,
        -0.0,
        -6.840800983922998e-08,
        0.7824963927268954,
        -0.0,
        -0.0,
        -0.0,
        -0.0,
        -0.23474888503551483,
        -0.0,
        -45.882808685302734,
        79.33038330078125,
        -24.886577606201172,
        1.0
      ],
      "name": "Drawers2"
    },
    {
      "mesh": 5,
      "name": "Drawers2_Palette_0"
    },
    {
      "children": [
        16
      ],
      "matrix": [
        2.9709722995758057,
        1.3234889800848441e-23,
        0.0,
        0.0,
        -3.8703212430794226e-24,
        0.8688109517097473,
        0.0,
        0.0,
        0.0,
        0.0,
        0.8432713150978088,
        0.0,
        0.2931976318359375,
        -60.189571380615234,
        -100.00000762939453,
        1.0
      ],
      "name": "Drawer.006"
    },
    {
      "mesh": 6,
      "name": "Drawer.006_Palette_0"
    },
    {
      "children": [
        18
      ],
      "matrix": [
        2.9709722995758057,
        1.3234889800848441e-23,
        0.0,
        0.0,
        -3.8703212430794226e-24,
        0.8688109517097473,
        0.0,
        0.0,
        0.0,
        0.0,
        0.8432713150978088,
        0.0,
        0.2931976318359375,
        -13.206161499023438,
        -100.00000762939453,
        1.0
      ],
      "name": "Drawer.007"
    },
    {
      "mesh": 7,
      "name": "Drawer.007_Palette_0"
    },
    {
      "children": [
        20
      ],
      "matrix": [
        2.9709722995758057,
        1.3234889800848441e-23,
        0.0,
        0.0,
        -3.8703212430794226e-24,
        0.8688109517097473,
        0.0,
        0.0,
        0.0,
        0.0,
        0.8432713150978088,
        0.0,
        0.2931976318359375,
        33.97627258300781,
        -100.00000762939453,
        1.0
      ],
      "name": "Drawer.008"
    },
    {
      "mesh": 8,
      "name": "Drawer.008_Palette_0"
    },
    {
      "children": [
        22
      ],
      "matrix": [
        -0.6729391813278174,
        -5.883021387108618e-08,
        0.0,
        0.0,
        1.3949038913906568e-08,
        -0.15955840051174108,
        0.0,
        0.0,
        0.0,
        0.0,
        0.05835084244608879,
        0.0,
        1.2700958251953125,
        75.09799194335938,
        -162.23919677734375,
        1.0
      ],
      "name": "Drawer.009"
    },
    {
      "mesh": 9,
      "name": "Drawer.009_Palette_0"
    },
    {
      "children": [
        24
      ],
      "matrix": [
        -3.307000329912733e-08,
        -0.0,
        -0.43802547454833857,
        -0.0,
        -1.1488017996046407e-08,
        0.13140760362148235,
        8.673212295806076e-16,
        -0.0,
        -0.18645466864108914,
        -1.6300385440143155e-08,
        1.4076935873476184e-08,
        -0.0,
        -72.31056213378906,
        112.26593017578125,
        46.54651641845703,
        1.0
      ],
      "name": "Folder"
    },
    {
      "mesh": 10,
      "name": "Folder_Palette_0"
    },
    {
      "children": [
        26
      ],
      "matrix": [
        -0.2048863431403036,
        9.529257730570497e-08,
        -0.37215945990928556,
        0.0,
        0.2941383040796763,
        8.625818541137337e-09,
        -0.16193306362564136,
        0.0,
        -9.467930712180175e-10,
        -0.011051169596612172,
        -2.3084445117811006e-09,
        0.0,
        28.021713256835938,
        104.41084289550781,
        34.316200256347656,
        1.0
      ],
      "name": "Paper"
    },
    {
      "mesh": 11,
      "name": "Paper_Palette_0"
    }
  ],
  "samplers": [
    {
      "magFilter": 9729,
      "minFilter": 9987,
      "wrapS": 10497,
      "wrapT": 10497
    }
  ],
  "scene": 0,
  "scenes": [
    {
      "name": "Sketchfab_Scene",
      "nodes": [
        0
      ]
    }
  ],
  "textures": [
    {
      "sampler": 0,
      "source": 0
    }
  ]
}
